<svg xmlns="http://www.w3.org/2000/svg" width="1200" height="1200" viewBox="0 0 1200 1200">
  <rect width="1200" height="1200" fill="#f7f8f5"/>
  <g transform="translate(0 285)">
  <rect x="70" y="70" width="1060" height="490" rx="8" fill="#ffffff" stroke="#dfe3de" stroke-width="2"/>
  <g transform="translate(145 165)">
    <rect width="230" height="230" rx="24" fill="#e5f2eb"/>
    <path d="M43 52c29-8 54 0 72 20 18-20 43-28 72-20v108c-29-8-54 0-72 20-18-20-43-28-72-20V52Z" fill="none" stroke="#18794e" stroke-width="13" stroke-linejoin="round"/>
    <path d="M115 72v108M65 135v27m18-23v27m18-25v28m28-28v28m18-30v27m18-31v27" stroke="#18794e" stroke-width="7"/>
  </g>
  <g fill="#1f2420" font-family="-apple-system, BlinkMacSystemFont, 'Hiragino Sans', 'Yu Gothic', sans-serif">
    <text x="445" y="270" font-size="82" font-weight="700">いまいくら</text>
    <text x="450" y="340" font-size="32" font-weight="500" fill="#4f5851">選んだ本の合計金額がすぐわかる</text>
  </g>
  <rect x="450" y="395" width="210" height="58" rx="6" fill="#18794e"/>
  <g fill="#ffffff" font-family="-apple-system, BlinkMacSystemFont, 'Hiragino Sans', 'Yu Gothic', sans-serif" font-size="24" font-weight="700">
    <text x="500" y="433">本をスキャン</text>
  </g>
  <g transform="translate(472 412)" fill="none" stroke="#ffffff" stroke-width="3">
    <path d="M0 0v17M7 0v17M15 0v17"/>
  </g>
  </g>
</svg>
